/* XPM */
static char *offline[] = {
/* columns rows colors chars-per-pixel */
"16 16 147 2 ",
"   c #2B518E",
".  c #315DA3",
"X  c #3163B0",
"o  c #3C6FBE",
"O  c #3870BB",
"+  c #3C77BE",
"@  c #4276AB",
"#  c #4377AB",
"$  c #4074AC",
"%  c #4879B2",
"&  c #4676C2",
"*  c #407BC1",
"=  c #427EC2",
"-  c #507DC5",
";  c #4983BD",
":  c #4580C2",
">  c #4782C3",
",  c #4D83C1",
"<  c #4986C3",
"1  c #4A86C3",
"2  c #4B87C3",
"3  c #4C87C3",
"4  c #4D82C4",
"5  c #5084C5",
"6  c #5386C6",
"7  c #508BC7",
"8  c #5688C7",
"9  c #5B86C9",
"0  c #508CC8",
"q  c #508DC8",
"w  c #508CC9",
"e  c #588AC8",
"r  c #5B8BC9",
"t  c #5D8CCA",
"y  c #608ECB",
"u  c #628ECC",
"i  c #648FCC",
"p  c #668ECC",
"a  c #7C9AC8",
"s  c #7096D0",
"d  c #7097D0",
"f  c #7B9DD3",
"g  c #84A4D5",
"h  c #87A8DC",
"j  c #89AADC",
"k  c #91ABD7",
"l  c #85AAE2",
"z  c #8AAEE2",
"x  c #8DB0E3",
"c  c #96B4E3",
"v  c #96B5E3",
"b  c #97B6E3",
"n  c #98B6E3",
"m  c #9CBFED",
"M  c #95BCF0",
"N  c #A0BFE9",
"B  c #A2BFE9",
"V  c #9EC1F0",
"C  c #A4C3EC",
"Z  c #A7C5EC",
"A  c #A9C5EA",
"S  c #ABC6ED",
"D  c #B0CAEB",
"F  c #B3CBEA",
"G  c #B3CAEB",
"H  c #B9CFEC",
"J  c #BCD0EC",
"K  c #B1CDF1",
"L  c #B2CCF1",
"P  c #BDD3F4",
"I  c #BDD5F4",
"U  c #B7D7FC",
"Y  c #CCD9EA",
"T  c #C9DEF7",
"R  c #C2DAF8",
"E  c #C4DBF8",
"W  c #C0DBFC",
"Q  c #C6DFFC",
"!  c #CDE0F8",
"~  c #D9E4F1",
"^  c #DDE7F7",
"/  c #DEE8F7",
"(  c #D0E1F8",
")  c #D0E1F9",
"_  c #D2E3F9",
"`  c #D6E4F9",
"'  c #D3E5FD",
"]  c #D4E6FD",
"[  c #D6E7FD",
"{  c #D7E8FD",
"}  c #DCE8F9",
"|  c #DEE9F9",
" . c #D8E8FD",
".. c #D8E9FD",
"X. c #DAE9FD",
"o. c #DBEAFD",
"O. c #DBEBFE",
"+. c #DCEAFD",
"@. c #DDEAFE",
"#. c #DCEBFE",
"$. c #DEEBFE",
"%. c #DFEBFE",
"&. c #DEECFD",
"*. c #DFECFE",
"=. c #E3EBF3",
"-. c #E4ECF5",
";. c #E0EAF9",
":. c #E3ECF9",
">. c #E5EDF9",
",. c #E6EEF9",
"<. c #E1EDFD",
"1. c #E4EFFE",
"2. c #EAEFF8",
"3. c #ECF1F7",
"4. c #E7F1FE",
"5. c #ECF2F8",
"6. c #EDF3F8",
"7. c #EEF3F8",
"8. c #ECF4F8",
"9. c #EAF3FE",
"0. c #EDF4FE",
"q. c #EEF5FE",
"w. c #F0F5FB",
"e. c #F1F7FB",
"r. c #F2F6FB",
"t. c #F3F6FB",
"y. c #F3F7FB",
"u. c #F1F5FC",
"i. c #F1F7FE",
"p. c #F4F8FB",
"a. c #F5F9FC",
"s. c #F6F9FC",
"d. c #F7F9FC",
"f. c #F7FAFC",
"g. c #F5F9FF",
"h. c #F6FAFF",
"j. c #F7FAFF",
"k. c #F8FAFD",
"l. c #F8FBFD",
"z. c #F9FBFD",
"x. c #F9FBFF",
"c. c #F9FCFF",
"v. c #FAFCFF",
"b. c #FBFCFF",
"n. c #FBFDFF",
"m. c #FCFDFF",
"M. c None",
/* pixels */
"M.M.M.M.M.M.M.M.M.M.M.M.M.M.M.M.",
"M.M.M.M.M.M.M.M.M.M.M.M.M.M.M.M.",
"a g d i u y t r e 8 6 5 4 , %   ",
"k k.u.c.c.c.c.c.c.c.m.m.m.t.2.# ",
"f r.c } 0.X.+.&.<.1.4.h.;.l ~ 0 ",
"d k.K c | u.<.1.9.9.h.:.z M 8.0 ",
"i k.[ L b | h.9.0.k.>.x C U 7.0 ",
"9 k. .[ S j :.c.c.>.h V W U 7.0 ",
"- d. .( F Z c ^ | n C A R Q 7.q ",
"& c.( H ( ] I C B P ] T D R 7.0 ",
"o p.J ] +.<.&.+.+.+.+.X.! F =.7 ",
". 7.-.r.r.t.p.h.h.p.d.d.h.3.Y @ ",
"  X O + * = : : 2 2 2 2 2 ; $   ",
"M.M.M.M.M.M.M.M.M.M.M.M.M.M.M.M.",
"M.M.M.M.M.M.M.M.M.M.M.M.M.M.M.M.",
"M.M.M.M.M.M.M.M.M.M.M.M.M.M.M.M."
};
