/* XPM */
static char *online[] = {
/* columns rows colors chars-per-pixel */
"16 16 107 2 ",
"   c #7F0000",
".  c red",
"X  c #3D6CB4",
"o  c #3C6FBE",
"O  c #3B72BC",
"+  c #3F79BF",
"@  c #4B71AE",
"#  c #607CAA",
"$  c #4676C2",
"%  c #427DC1",
"&  c #507DC5",
"*  c #5684B5",
"=  c #5B88B6",
"-  c #5D8AB6",
";  c #5C87BA",
":  c #5088BF",
">  c #4580C2",
",  c #4983C3",
"<  c #4B87C3",
"1  c #4C87C3",
"2  c #4F83C4",
"3  c #4D88C3",
"4  c #4F89C4",
"5  c #5286C2",
"6  c #5184C5",
"7  c #5486C6",
"8  c #508BC7",
"9  c #5788C7",
"0  c #5B86C9",
"q  c #508CC8",
"w  c #508CC9",
"e  c #598AC8",
"r  c #5C8BC9",
"t  c #5E8CCA",
"y  c #618ECB",
"u  c #638ECC",
"i  c #658ECC",
"p  c #7096D0",
"a  c #7298D0",
"s  c #7B9DD3",
"d  c #8BA9D7",
"f  c #87A8DC",
"g  c #89AADC",
"h  c #9CB3D5",
"j  c #A0B6DC",
"k  c #85AAE2",
"l  c #8AAEE2",
"z  c #96B4E3",
"x  c #97B6E3",
"c  c #98B6E3",
"v  c #9CBFED",
"b  c #95BCF0",
"n  c #9EC1F0",
"m  c #A4C3EC",
"M  c #A7C5EC",
"N  c #A9C5EA",
"B  c #ABC6ED",
"V  c #B1CAEB",
"C  c #B3CBEA",
"Z  c #B9CFEC",
"A  c #BCD0EC",
"S  c #B1CCF1",
"D  c #BDD3F4",
"F  c #BDD5F4",
"G  c #B7D7FC",
"H  c #CDDAEA",
"J  c #C9DEF7",
"K  c #C2DAF8",
"L  c #C4DBF8",
"P  c #C0DBFC",
"I  c #C6DFFC",
"U  c #CDE0F8",
"Y  c #D9E4F1",
"T  c #D0E1F8",
"R  c #D0E1F9",
"E  c #D2E3F9",
"W  c #D6E4F9",
"Q  c #D3E5FD",
"!  c #D4E6FD",
"~  c #D7E8FD",
"^  c #DDE8F9",
"/  c #D8E8FD",
"(  c #DBEAFD",
")  c #DEEAFE",
"_  c #DFECFE",
"`  c #E3EBF3",
"'  c #E4ECF5",
"]  c #E0EAF9",
"[  c #E3ECF9",
"{  c #E6EEF9",
"}  c #EAEFF8",
"|  c #ECF1F7",
" . c #E7F1FE",
".. c #EDF2F8",
"X. c #ECF4F8",
"o. c #EEF5FE",
"O. c #F0F5FB",
"+. c #F2F6FB",
"@. c #F1F5FC",
"#. c #F4F8FB",
"$. c #F5F9FC",
"%. c #F7FAFC",
"&. c #F6FAFF",
"*. c #F8FAFD",
"=. c #F9FCFF",
"-. c #FCFDFF",
";. c None",
/* pixels */
";.;.;.;.;.;.;.;.;.;.;.;.;.;.;.;.",
";.;.;.;.;.;.;.;.;.;.;.;.;.;.;.;.",
"h d a i u y t r e 9 7 6 2 5 ; # ",
"j *.@.=.=.=.=.. . =.=.=.-.+.} - ",
"s +.z ^ o./ . . . .  .&.] k Y q ",
"p *.S z ^ . . . . . . [ l b X.q ",
"i *.Q S       . .       n G ..q ",
"0 *.~ ! B g [ . . { f v P P ..q ",
"& *./ T V M c . . z m N K I ..q ",
"$ *.T Z T ! F . . F ~ J V L ..q ",
"o &.Z W _ _ )     ) / / U V ` q ",
"@ ..' +.+.+.#.&.&.#.#.*.%...H = ",
"# X o + % > > , 1 1 3 3 4 : * # ",
";.;.;.;.;.;.;.;.;.;.;.;.;.;.;.;.",
";.;.;.;.;.;.;.;.;.;.;.;.;.;.;.;.",
";.;.;.;.;.;.;.;.;.;.;.;.;.;.;.;."
};
